# This file uses centimeters as units for non-parametric coordinates.

mtllib CardFront.mtl
g default
v 0.047096 0.066044 0.001757
v 0.046465 0.068399 0.001757
v 0.044741 0.070123 0.001757
v 0.042387 0.070753 0.001757
v -0.047096 0.066044 0.001757
v -0.042387 0.070753 0.001757
v -0.044741 0.070123 0.001757
v -0.046465 0.068399 0.001757
v 0.044741 -0.070123 0.001757
v 0.046465 -0.068399 0.001757
v 0.047096 -0.066045 0.001757
v 0.042387 -0.070754 0.001757
v -0.046465 -0.068399 0.001757
v -0.044741 -0.070123 0.001757
v -0.042387 -0.070754 0.001757
v -0.047096 -0.066045 0.001757
v 0.042387 0.070753 -0.001757
v -0.042387 0.070753 -0.001757
v 0.044741 0.070123 -0.001757
v 0.046465 0.068399 -0.001757
v 0.047096 0.066044 -0.001757
v 0.047096 -0.066045 -0.001757
v 0.046465 -0.068399 -0.001757
v 0.044741 -0.070123 -0.001757
v 0.042387 -0.070754 -0.001757
v -0.042387 -0.070754 -0.001757
v -0.044741 -0.070123 -0.001757
v -0.046465 -0.068399 -0.001757
v -0.047096 -0.066045 -0.001757
v -0.047096 0.066044 -0.001757
v -0.046465 0.068399 -0.001757
v -0.044741 0.070123 -0.001757
vt 0.049995 1.000000
vt 0.049995 1.000000
vt 0.950005 1.000000
vt 0.950005 1.000000
vt 0.049995 -0.000000
vt 0.049995 -0.000000
vt 0.950005 -0.000000
vt 0.950005 -0.000000
vt 1.000000 0.033278
vt 1.000000 0.033278
vt 1.000000 0.966722
vt 1.000000 0.966722
vt 0.000000 0.033278
vt 0.000000 0.033278
vt 0.000000 0.966722
vt 0.000000 0.966722
vt 0.006698 0.983362
vt 0.006698 0.983362
vt 0.024997 0.995542
vt 0.024997 0.995542
vt 0.975003 0.995542
vt 0.975003 0.995542
vt 0.993302 0.983362
vt 0.993302 0.983362
vt 0.024997 0.004458
vt 0.024997 0.004458
vt 0.006698 0.016638
vt 0.006698 0.016638
vt 0.993302 0.016638
vt 0.993302 0.016638
vt 0.975003 0.004458
vt 0.975003 0.004458
vn 0.007240 0.999974 0.000000
vn 0.007240 0.999974 0.000000
vn -0.007240 0.999974 0.000000
vn -0.007240 0.999974 0.000000
vn 0.007240 -0.999974 0.000000
vn 0.007240 -0.999974 0.000000
vn -0.007240 -0.999974 0.000000
vn -0.007240 -0.999974 0.000000
vn -0.999989 -0.004693 0.000000
vn -0.999989 -0.004693 0.000000
vn -0.999989 0.004693 0.000000
vn -0.999989 0.004693 0.000000
vn 0.999989 -0.004693 0.000000
vn 0.999989 -0.004693 0.000000
vn 0.999989 0.004693 0.000000
vn 0.999989 0.004693 0.000000
vn 0.866025 0.500000 0.000000
vn 0.866024 0.500002 0.000000
vn 0.499981 0.866037 0.000000
vn 0.499981 0.866037 0.000000
vn -0.499981 0.866037 0.000000
vn -0.499981 0.866037 0.000000
vn -0.866024 0.500002 0.000000
vn -0.866025 0.500000 0.000000
vn 0.499981 -0.866037 0.000000
vn 0.499981 -0.866037 0.000000
vn 0.866024 -0.500002 0.000000
vn 0.866025 -0.500000 0.000000
vn -0.866025 -0.500000 0.000000
vn -0.866024 -0.500002 0.000000
vn -0.499981 -0.866037 0.000000
vn -0.499981 -0.866037 0.000000
vn -0.000000 0.000000 1.000000
vn -0.000000 0.000000 1.000000
vn -0.000000 0.000000 1.000000
vn 0.000000 0.000000 1.000000
vn 0.000000 0.000000 1.000000
vn 0.000000 0.000000 1.000000
vn 0.000000 0.000000 1.000000
vn -0.000000 0.000000 1.000000
vn 0.000000 0.000000 1.000000
vn 0.000000 0.000000 1.000000
vn 0.000000 0.000000 1.000000
vn -0.000000 0.000000 1.000000
vn 0.000000 0.000000 1.000000
vn -0.000000 0.000000 1.000000
vn -0.000000 0.000000 1.000000
vn -0.000000 0.000000 1.000000
s 1
g CardFront pCube1
usemtl phong2SG
f 4/1/1 17/2/2 6/4/3
f 6/4/3 17/2/2 18/3/4
f 25/5/5 12/6/6 26/8/7
f 26/8/7 12/6/6 15/7/8
f 29/9/9 16/10/10 30/12/11
f 30/12/11 16/10/10 5/11/12
f 11/13/13 22/14/14 1/16/15
f 1/16/15 22/14/14 21/15/16
f 21/15/16 20/17/17 1/16/15
f 1/16/15 20/17/17 2/18/18
f 20/17/17 19/19/19 2/18/18
f 2/18/18 19/19/19 3/20/20
f 19/19/19 17/2/2 3/20/20
f 3/20/20 17/2/2 4/1/1
f 18/3/4 32/21/21 6/4/3
f 6/4/3 32/21/21 7/22/22
f 32/21/21 31/23/23 7/22/22
f 7/22/22 31/23/23 8/24/24
f 31/23/23 30/12/11 8/24/24
f 8/24/24 30/12/11 5/11/12
f 25/5/5 24/25/25 12/6/6
f 12/6/6 24/25/25 9/26/26
f 24/25/25 23/27/27 9/26/26
f 9/26/26 23/27/27 10/28/28
f 23/27/27 22/14/14 10/28/28
f 10/28/28 22/14/14 11/13/13
f 29/9/9 28/29/29 16/10/10
f 16/10/10 28/29/29 13/30/30
f 28/29/29 27/31/31 13/30/30
f 13/30/30 27/31/31 14/32/32
f 27/31/31 26/8/7 14/32/32
f 14/32/32 26/8/7 15/7/8
s 5
f 5/11/33 6/4/34 8/24/35
f 8/24/35 6/4/34 7/22/36
f 4/1/37 1/16/38 3/20/39
f 3/20/39 1/16/38 2/18/40
f 11/13/41 12/6/42 10/28/43
f 10/28/43 12/6/42 9/26/44
f 13/30/45 14/32/46 16/10/47
f 16/10/47 14/32/46 15/7/48
f 16/10/47 11/13/41 5/11/33
f 5/11/33 11/13/41 1/16/38
f 16/10/47 15/7/48 11/13/41
f 11/13/41 15/7/48 12/6/42
f 5/11/33 1/16/38 6/4/34
f 6/4/34 1/16/38 4/1/37
