# This file uses centimeters as units for non-parametric coordinates.

mtllib IndicationArrow.mtl
g default
v -0.200005 0.500000 0.200005
v -0.200005 0.500000 -0.200005
v -0.227642 0.455283 -0.227642
v -0.227642 0.455283 0.227642
v 0.227642 0.455283 0.227642
v 0.200005 0.500000 0.200005
v 0.227642 0.455283 -0.227642
v 0.200005 0.500000 -0.200005
v -0.200005 0.500000 0.200005
v 0.200005 0.500000 0.200005
v -0.200005 0.500000 -0.200005
v 0.200005 0.500000 -0.200005
v 0.000000 -0.000000 0.000000
v -0.227642 0.455283 0.227642
v 0.227642 0.455283 0.227642
v -0.227642 0.455283 -0.227642
v 0.227642 0.455283 -0.227642
vt 0.009511 0.009594
vt 0.038237 0.027347
vt 0.009511 0.302063
vt 0.038237 0.284310
vt 0.038237 0.027347
vt 0.009511 0.009594
vt 0.038237 0.284310
vt 0.009511 0.302063
vt 0.386159 0.310957
vt 0.643121 0.310957
vt 0.386159 0.567919
vt 0.643121 0.567919
vt 0.186361 0.017195
vt 0.332596 0.309664
vt 0.040127 0.309664
vt 0.344112 0.304597
vt 0.344112 0.012127
vt 0.636581 0.158362
vt 0.781663 0.001992
vt 0.927898 0.294461
vt 0.635428 0.294461
vt 0.810440 0.298288
vt 0.956675 0.590757
vt 0.664205 0.590757
vn -0.850651 0.525731 0.000000
vn -0.850651 0.525731 0.000000
vn -0.850651 0.525731 0.000000
vn -0.850651 0.525731 0.000000
vn 0.000000 0.525731 0.850651
vn 0.000000 0.525731 0.850651
vn 0.000000 0.525731 0.850651
vn 0.000000 0.525731 0.850651
vn 0.850651 0.525731 0.000000
vn 0.850651 0.525731 0.000000
vn 0.850651 0.525731 0.000000
vn 0.850651 0.525731 0.000000
vn 0.000000 0.525731 -0.850651
vn 0.000000 0.525731 -0.850651
vn 0.000000 0.525731 -0.850651
vn 0.000000 0.525731 -0.850651
vn 0.000000 1.000000 0.000000
vn 0.000000 1.000000 0.000000
vn 0.000000 1.000000 0.000000
vn 0.000000 1.000000 0.000000
vn 0.000000 -0.447214 0.894427
vn 0.000000 -0.447214 0.894427
vn 0.000000 -0.447214 0.894427
vn 0.000000 -0.447214 -0.894427
vn 0.000000 -0.447214 -0.894427
vn 0.000000 -0.447214 -0.894427
vn 0.894427 -0.447214 0.000000
vn 0.894427 -0.447214 0.000000
vn 0.894427 -0.447214 0.000000
vn -0.894427 -0.447214 0.000000
vn -0.894427 -0.447214 0.000000
vn -0.894427 -0.447214 0.000000
s 1
g Arrow
usemtl phong2SG
f 4/1/1 1/2/2 3/3/3
f 3/3/3 1/2/2 2/4/4
s 2
f 1/2/5 4/1/6 6/5/7
f 6/5/7 4/1/6 5/6/8
s 3
f 6/5/9 5/6/10 8/7/11
f 8/7/11 5/6/10 7/8/12
s 4
f 3/3/13 2/4/14 7/8/15
f 7/8/15 2/4/14 8/7/16
s 5
f 9/9/17 10/10/18 11/11/19
f 11/11/19 10/10/18 12/12/20
s off
f 13/13/21 15/14/22 14/15/23
f 16/16/24 17/17/25 13/18/26
f 13/19/27 17/20/28 15/21/29
f 13/22/30 14/23/31 16/24/32
